<svg height="16" viewBox="0 0 16 16" width="16" xmlns="http://www.w3.org/2000/svg"><path d="m1.30156267 7.06149918 4.94101596 4.61289092c.20507812.1914063.47578108.2980467.75742137.2980467.28164071 0 .5523445-.1066404.75742263-.2980467l4.94101517-4.61289092c.8312498-.77382779 1.3015622-1.859375 1.3015622-2.99414062v-.15859426c0-1.91132795-1.380859-3.54101562-3.2648432-3.85546875-1.24687513-.20781183-2.51562497.19960988-3.40703138 1.0910163l-.32812542.328125-.32812458-.328125c-.89140642-.89140642-2.16015625-1.29882813-3.40703142-1.09101546-1.88398463.31445312-3.264844 1.94414079-3.264844 3.85546875v.15859425c0 1.13476521.47031242 2.220312 1.30156225 2.99414063z" fill="#f50" transform="translate(1 1.902563)"/></svg>